<?xml version="1.0" encoding="utf-8"?>
<!-- Generator: Adobe Illustrator 26.5.0, SVG Export Plug-In . SVG Version: 6.00 Build 0)  -->
<svg version="1.1" id="Capa_1" xmlns="http://www.w3.org/2000/svg" xmlns:xlink="http://www.w3.org/1999/xlink" x="0px" y="0px"
	 viewBox="0 0 248.3 115.7" style="enable-background:new 0 0 248.3 115.7;" xml:space="preserve">
<style type="text/css">
	.st0{enable-background:new    ;}
	.st1{fill:#FFB71B;}
	.st2{fill:#00263E;}
	.st3{clip-path:url(#SVGID_00000064338752281098648490000017280810490375114402_);fill:#FFB71B;}
	.st4{clip-path:url(#SVGID_00000064338752281098648490000017280810490375114402_);fill:#FFB61B;}
	.st5{clip-path:url(#SVGID_00000064338752281098648490000017280810490375114402_);fill:#FEB51A;}
	.st6{clip-path:url(#SVGID_00000064338752281098648490000017280810490375114402_);fill:#FEB41A;}
	.st7{clip-path:url(#SVGID_00000064338752281098648490000017280810490375114402_);fill:#FDB319;}
	.st8{clip-path:url(#SVGID_00000064338752281098648490000017280810490375114402_);fill:#FDB119;}
	.st9{clip-path:url(#SVGID_00000064338752281098648490000017280810490375114402_);fill:#FCB018;}
	.st10{clip-path:url(#SVGID_00000064338752281098648490000017280810490375114402_);fill:#FCAF18;}
	.st11{clip-path:url(#SVGID_00000064338752281098648490000017280810490375114402_);fill:#FBAE17;}
	.st12{clip-path:url(#SVGID_00000011021383361786227540000016920293967528609458_);fill:#FFB71B;}
	.st13{clip-path:url(#SVGID_00000011021383361786227540000016920293967528609458_);fill:#FFB61B;}
	.st14{clip-path:url(#SVGID_00000011021383361786227540000016920293967528609458_);fill:#FEB51A;}
	.st15{clip-path:url(#SVGID_00000011021383361786227540000016920293967528609458_);fill:#FEB41A;}
	.st16{clip-path:url(#SVGID_00000011021383361786227540000016920293967528609458_);fill:#FDB319;}
	.st17{clip-path:url(#SVGID_00000011021383361786227540000016920293967528609458_);fill:#FDB119;}
	.st18{clip-path:url(#SVGID_00000011021383361786227540000016920293967528609458_);fill:#FCB018;}
	.st19{clip-path:url(#SVGID_00000011021383361786227540000016920293967528609458_);fill:#FCAF18;}
	.st20{clip-path:url(#SVGID_00000011021383361786227540000016920293967528609458_);fill:#FBAE17;}
</style>
<g>
	<g class="st0">
		<g>
			<path class="st1" d="M2.6,71.9c2.4-0.4,6.1-0.7,10.1-0.7c5,0,8.5,0.7,10.9,2.6c2,1.6,3.1,3.9,3.1,7c0,4.3-3,7.2-5.9,8.3v0.1
				c2.3,0.9,3.6,3.2,4.5,6.3c1,3.8,2.1,8.2,2.7,9.5h-7.8c-0.5-1-1.3-3.7-2.3-7.8c-0.9-4.2-2.3-5.3-5.4-5.4h-2.3V105H2.6V71.9z
				 M10.2,86.4h3c3.8,0,6-1.9,6-4.8c0-3.1-2.1-4.6-5.6-4.7c-1.8,0-2.9,0.1-3.4,0.2V86.4z"/>
		</g>
		<g>
			<path class="st1" d="M37.8,95.3c0.2,3.1,3.3,4.6,6.9,4.6c2.6,0,4.7-0.3,6.7-1l1,5.1c-2.5,1-5.5,1.5-8.8,1.5
				c-8.3,0-13-4.8-13-12.5c0-6.2,3.8-13,12.3-13c7.9,0,10.9,6.1,10.9,12.2c0,1.3-0.1,2.4-0.2,3H37.8z M46.7,90.1
				c0-1.8-0.8-4.9-4.3-4.9c-3.2,0-4.5,2.9-4.7,4.9H46.7z"/>
		</g>
		<g>
			<path class="st1" d="M81.3,101.5c0,4.7-0.9,8.5-3.7,11c-2.7,2.3-6.3,3-9.9,3c-3.2,0-6.6-0.6-8.8-1.9l1.5-5.7
				c1.5,0.9,4.2,1.8,7.1,1.8c3.6,0,6.3-1.9,6.3-6.4v-1.6h-0.1c-1.4,2-3.8,3.2-6.6,3.2c-6,0-10.3-4.9-10.3-11.9
				c0-7.8,5.1-12.8,11.1-12.8c3.3,0,5.4,1.4,6.7,3.4h0.1l0.2-2.9h6.6c-0.1,1.5-0.2,3.6-0.2,7.2V101.5z M73.8,90.6c0-0.5,0-1-0.1-1.4
				c-0.5-2-2-3.3-4.1-3.3c-2.7,0-5,2.5-5,6.9c0,3.6,1.8,6.5,5,6.5c1.9,0,3.5-1.3,4-3.1c0.2-0.5,0.2-1.3,0.2-2V90.6z"/>
		</g>
		<g>
			<path class="st1" d="M95.3,73.9c0,2.1-1.6,3.8-4.1,3.8c-2.4,0-4-1.7-3.9-3.8c0-2.2,1.5-3.8,4-3.8S95.2,71.7,95.3,73.9z M87.4,105
				V80.7H95V105H87.4z"/>
		</g>
		<g>
			<path class="st1" d="M101,98.4c1.4,0.8,4.3,1.8,6.5,1.8c2.3,0,3.2-0.8,3.2-2c0-1.2-0.7-1.8-3.6-2.8c-5-1.7-7-4.4-6.9-7.3
				c0-4.6,3.9-8,9.9-8c2.8,0,5.4,0.6,6.9,1.4l-1.3,5.2c-1.1-0.6-3.2-1.4-5.3-1.4c-1.8,0-2.9,0.7-2.9,2c0,1.1,0.9,1.7,3.9,2.8
				c4.6,1.6,6.6,3.9,6.6,7.5c0,4.5-3.6,7.9-10.6,7.9c-3.2,0-6-0.7-7.9-1.7L101,98.4z"/>
		</g>
		<g>
			<path class="st1" d="M131.2,74.1v6.6h5.4v5.6h-5.4v8.8c0,2.9,0.7,4.3,3,4.3c1,0,1.5,0,2.2-0.2l0,5.7c-1,0.4-2.8,0.7-4.9,0.7
				c-2.4,0-4.5-0.9-5.7-2.1c-1.4-1.4-2.1-3.8-2.1-7.2v-10h-3.2v-5.6h3.2v-4.6L131.2,74.1z"/>
		</g>
		<g>
			<path class="st1" d="M141,88.7c0-3.6-0.1-5.9-0.2-8h6.5l0.2,4.5h0.2c1.2-3.5,4.2-5,6.6-5c0.7,0,1,0,1.6,0.1v7.2
				c-0.5-0.1-1.2-0.2-2-0.2c-2.8,0-4.7,1.5-5.2,3.8c-0.1,0.5-0.1,1.1-0.1,1.7V105H141V88.7z"/>
		</g>
	</g>
	<g class="st0">
		<g>
			<path class="st2" d="M168,96.4l-2.4,8.6h-7.9L168,71.5h10l10.4,33.6h-8.2l-2.6-8.6H168z M176.5,90.7l-2.1-7.1
				c-0.6-2-1.2-4.5-1.7-6.5h-0.1c-0.5,2-1,4.5-1.5,6.5l-2,7.1H176.5z"/>
		</g>
		<g>
			<path class="st2" d="M192.3,88.9c0-3.2-0.1-5.9-0.2-8.2h6.6l0.3,3.4h0.1c1.8-2.6,4.6-3.9,8.1-3.9c5.3,0,10.1,4.6,10.1,12.4
				c0,8.9-5.6,13.1-11.1,13.1c-2.9,0-5.2-1.2-6.3-2.8h-0.1v12.1h-7.6V88.9z M199.9,94.6c0,0.6,0,1.1,0.2,1.6c0.5,2,2.2,3.6,4.4,3.6
				c3.3,0,5.2-2.7,5.2-6.9c0-3.9-1.7-6.8-5.1-6.8c-2.1,0-4,1.6-4.5,3.8c-0.1,0.4-0.2,0.9-0.2,1.3V94.6z"/>
		</g>
		<g>
			<path class="st2" d="M222.1,88.9c0-3.2-0.1-5.9-0.2-8.2h6.6l0.3,3.4h0.1c1.8-2.6,4.6-3.9,8.1-3.9c5.3,0,10.1,4.6,10.1,12.4
				c0,8.9-5.6,13.1-11.1,13.1c-2.9,0-5.2-1.2-6.3-2.8h-0.1v12.1h-7.6V88.9z M229.7,94.6c0,0.6,0,1.1,0.2,1.6c0.5,2,2.2,3.6,4.4,3.6
				c3.3,0,5.2-2.7,5.2-6.9c0-3.9-1.7-6.8-5.1-6.8c-2.1,0-4,1.6-4.5,3.8c-0.1,0.4-0.2,0.9-0.2,1.3V94.6z"/>
		</g>
	</g>
	<g>
		<g>
			<path class="st2" d="M159.2,59.1h-55.6c-0.9,0-1.6-0.7-1.6-1.6V41.3L88.1,31c-0.4-0.3-0.7-0.8-0.7-1.3s0.2-1,0.7-1.3L102,18.1
				V1.9c0-0.9,0.7-1.6,1.6-1.6h55.6c0.9,0,1.6,0.7,1.6,1.6v55.6C160.8,58.4,160.1,59.1,159.2,59.1z M105.2,55.9h52.3V3.5h-52.3v15.4
				c0,0.5-0.2,1-0.7,1.3l-12.7,9.5l12.7,9.5c0.4,0.3,0.7,0.8,0.7,1.3V55.9z"/>
		</g>
		<g>
			<path class="st2" d="M146.4,46.1h-10.2c-0.6,0-1.1-0.5-1.1-1.1V34.8c0-0.6,0.5-1.1,1.1-1.1h10.2c0.6,0,1.1,0.5,1.1,1.1V45
				C147.5,45.6,147,46.1,146.4,46.1z M137.3,43.9h8v-8h-8V43.9z"/>
		</g>
		<g>
			<g>
				<path class="st2" d="M120.9,52.6h-11c-0.3,0-0.7-0.1-0.9-0.4s-0.4-0.6-0.4-0.9l0.1-11.1c0-0.7,0.6-1.3,1.3-1.3c0,0,0,0,0,0
					c0.7,0,1.3,0.6,1.3,1.3l-0.1,9.8h9.7c0.7,0,1.3,0.6,1.3,1.3S121.6,52.6,120.9,52.6z"/>
			</g>
			<g>
				<path class="st2" d="M153.2,20.5c-0.7,0-1.3-0.6-1.3-1.3V9.3h-10c-0.7,0-1.3-0.6-1.3-1.3s0.6-1.3,1.3-1.3h11.3
					c0.7,0,1.3,0.6,1.3,1.3v11.2C154.5,19.9,153.9,20.5,153.2,20.5z"/>
			</g>
			<g>
				<path class="st2" d="M110,20.5c-0.7,0-1.3-0.6-1.3-1.3L108.6,8c0-0.3,0.1-0.7,0.4-0.9s0.6-0.4,0.9-0.4h11c0.7,0,1.3,0.6,1.3,1.3
					s-0.6,1.3-1.3,1.3h-9.7l0.1,9.9C111.3,19.9,110.7,20.5,110,20.5C110,20.5,110,20.5,110,20.5z"/>
			</g>
			<g>
				<path class="st2" d="M153.2,52.6h-11.3c-0.7,0-1.3-0.6-1.3-1.3s0.6-1.3,1.3-1.3h10v-9.8c0-0.7,0.6-1.3,1.3-1.3s1.3,0.6,1.3,1.3
					v11.1C154.5,52,153.9,52.6,153.2,52.6z"/>
			</g>
		</g>
		<g>
			<path class="st2" d="M126,46.1c-0.6,0-1.1-0.5-1.1-1.1v-9.1h-9.1c-0.6,0-1.1-0.5-1.1-1.1s0.5-1.1,1.1-1.1H126
				c0.6,0,1.1,0.5,1.1,1.1V45C127.1,45.6,126.6,46.1,126,46.1z"/>
		</g>
		<g>
			<g>
				<defs>
					<rect id="SVGID_1_" x="117.6" y="38.6" width="4.5" height="4.5"/>
				</defs>
				<clipPath id="SVGID_00000065794810042239747310000006282906451533858951_">
					<use xlink:href="#SVGID_1_"  style="overflow:visible;"/>
				</clipPath>

					<rect x="117.6" y="38.6" style="clip-path:url(#SVGID_00000065794810042239747310000006282906451533858951_);fill:#FFB71B;" width="0" height="4.5"/>

					<rect x="117.6" y="38.6" style="clip-path:url(#SVGID_00000065794810042239747310000006282906451533858951_);fill:#FFB71B;" width="0.5" height="4.5"/>

					<rect x="118.1" y="38.6" style="clip-path:url(#SVGID_00000065794810042239747310000006282906451533858951_);fill:#FFB61B;" width="0.5" height="4.5"/>

					<rect x="118.6" y="38.6" style="clip-path:url(#SVGID_00000065794810042239747310000006282906451533858951_);fill:#FEB51A;" width="0.5" height="4.5"/>

					<rect x="119.2" y="38.6" style="clip-path:url(#SVGID_00000065794810042239747310000006282906451533858951_);fill:#FEB41A;" width="0.5" height="4.5"/>

					<rect x="119.7" y="38.6" style="clip-path:url(#SVGID_00000065794810042239747310000006282906451533858951_);fill:#FDB319;" width="0.5" height="4.5"/>

					<rect x="120.2" y="38.6" style="clip-path:url(#SVGID_00000065794810042239747310000006282906451533858951_);fill:#FDB119;" width="0.5" height="4.5"/>

					<rect x="120.7" y="38.6" style="clip-path:url(#SVGID_00000065794810042239747310000006282906451533858951_);fill:#FCB018;" width="0.5" height="4.5"/>

					<rect x="121.2" y="38.6" style="clip-path:url(#SVGID_00000065794810042239747310000006282906451533858951_);fill:#FCAF18;" width="0.5" height="4.5"/>

					<rect x="121.7" y="38.6" style="clip-path:url(#SVGID_00000065794810042239747310000006282906451533858951_);fill:#FBAE17;" width="0.4" height="4.5"/>
			</g>
		</g>
		<g>
			<g>
				<defs>
					<rect id="SVGID_00000009580592464711422890000015573500370819422864_" x="139.1" y="17.2" width="4.5" height="4.5"/>
				</defs>
				<clipPath id="SVGID_00000036934469096043548240000009696671037575552683_">
					<use xlink:href="#SVGID_00000009580592464711422890000015573500370819422864_"  style="overflow:visible;"/>
				</clipPath>

					<rect x="139.1" y="17.2" style="clip-path:url(#SVGID_00000036934469096043548240000009696671037575552683_);fill:#FFB71B;" width="0" height="4.5"/>

					<rect x="139.1" y="17.2" style="clip-path:url(#SVGID_00000036934469096043548240000009696671037575552683_);fill:#FFB71B;" width="0.5" height="4.5"/>

					<rect x="139.6" y="17.2" style="clip-path:url(#SVGID_00000036934469096043548240000009696671037575552683_);fill:#FFB61B;" width="0.5" height="4.5"/>

					<rect x="140.1" y="17.2" style="clip-path:url(#SVGID_00000036934469096043548240000009696671037575552683_);fill:#FEB51A;" width="0.5" height="4.5"/>

					<rect x="140.6" y="17.2" style="clip-path:url(#SVGID_00000036934469096043548240000009696671037575552683_);fill:#FEB41A;" width="0.5" height="4.5"/>

					<rect x="141.1" y="17.2" style="clip-path:url(#SVGID_00000036934469096043548240000009696671037575552683_);fill:#FDB319;" width="0.5" height="4.5"/>

					<rect x="141.6" y="17.2" style="clip-path:url(#SVGID_00000036934469096043548240000009696671037575552683_);fill:#FDB119;" width="0.5" height="4.5"/>

					<rect x="142.1" y="17.2" style="clip-path:url(#SVGID_00000036934469096043548240000009696671037575552683_);fill:#FCB018;" width="0.5" height="4.5"/>

					<rect x="142.6" y="17.2" style="clip-path:url(#SVGID_00000036934469096043548240000009696671037575552683_);fill:#FCAF18;" width="0.5" height="4.5"/>

					<rect x="143.1" y="17.2" style="clip-path:url(#SVGID_00000036934469096043548240000009696671037575552683_);fill:#FBAE17;" width="0.5" height="4.5"/>
			</g>
		</g>
		<g>
			<path class="st2" d="M146.4,25.7h-10.2c-0.6,0-1.1-0.5-1.1-1.1V14.4c0-0.6,0.5-1.1,1.1-1.1h10.2c0.6,0,1.1,0.5,1.1,1.1v10.2
				C147.5,25.2,147,25.7,146.4,25.7z M137.3,23.5h8v-8h-8V23.5z"/>
		</g>
		<g>
			<path class="st2" d="M126,25.7h-10.2c-0.6,0-1.1-0.5-1.1-1.1V14.4c0-0.6,0.5-1.1,1.1-1.1H126c0.6,0,1.1,0.5,1.1,1.1v10.2
				C127.1,25.2,126.6,25.7,126,25.7z M116.9,23.5h8v-8h-8V23.5z"/>
		</g>
	</g>
</g>
</svg>
