<?xml version="1.0" encoding="utf-8"?>
<!-- Generator: Adobe Illustrator 26.5.0, SVG Export Plug-In . SVG Version: 6.00 Build 0)  -->
<svg version="1.1" id="Capa_1" xmlns="http://www.w3.org/2000/svg" xmlns:xlink="http://www.w3.org/1999/xlink" x="0px" y="0px"
	 viewBox="0 0 248.3 115.7" style="enable-background:new 0 0 248.3 115.7;" xml:space="preserve">
<style type="text/css">
	.st0{fill:#FFB71B;}
	.st1{font-family:'MyriadPro-Bold';}
	.st2{font-size:49.8413px;}
	.st3{fill:#FFFFFF;}
	.st4{clip-path:url(#SVGID_00000016784799599298392260000003837592461742818736_);fill:#FFB71B;}
	.st5{clip-path:url(#SVGID_00000016784799599298392260000003837592461742818736_);fill:#FFB61B;}
	.st6{clip-path:url(#SVGID_00000016784799599298392260000003837592461742818736_);fill:#FEB51A;}
	.st7{clip-path:url(#SVGID_00000016784799599298392260000003837592461742818736_);fill:#FEB41A;}
	.st8{clip-path:url(#SVGID_00000016784799599298392260000003837592461742818736_);fill:#FDB319;}
	.st9{clip-path:url(#SVGID_00000016784799599298392260000003837592461742818736_);fill:#FDB119;}
	.st10{clip-path:url(#SVGID_00000016784799599298392260000003837592461742818736_);fill:#FCB018;}
	.st11{clip-path:url(#SVGID_00000016784799599298392260000003837592461742818736_);fill:#FCAF18;}
	.st12{clip-path:url(#SVGID_00000016784799599298392260000003837592461742818736_);fill:#FBAE17;}
	.st13{clip-path:url(#SVGID_00000008113788257173965560000008523752239367573948_);fill:#FFB71B;}
	.st14{clip-path:url(#SVGID_00000008113788257173965560000008523752239367573948_);fill:#FFB61B;}
	.st15{clip-path:url(#SVGID_00000008113788257173965560000008523752239367573948_);fill:#FEB51A;}
	.st16{clip-path:url(#SVGID_00000008113788257173965560000008523752239367573948_);fill:#FEB41A;}
	.st17{clip-path:url(#SVGID_00000008113788257173965560000008523752239367573948_);fill:#FDB319;}
	.st18{clip-path:url(#SVGID_00000008113788257173965560000008523752239367573948_);fill:#FDB119;}
	.st19{clip-path:url(#SVGID_00000008113788257173965560000008523752239367573948_);fill:#FCB018;}
	.st20{clip-path:url(#SVGID_00000008113788257173965560000008523752239367573948_);fill:#FCAF18;}
	.st21{clip-path:url(#SVGID_00000008113788257173965560000008523752239367573948_);fill:#FBAE17;}
</style>
<g>
	<text transform="matrix(1 0 0 1 -0.6409 105.0492)" class="st0 st1 st2">Registr</text>
	<text transform="matrix(1 0 0 1 156.8591 105.0492)" class="st3 st1 st2">App</text>
	<g>
		<g>
			<path class="st3" d="M159.2,59.1h-55.6c-0.9,0-1.6-0.7-1.6-1.6V41.3L88.1,31c-0.4-0.3-0.7-0.8-0.7-1.3s0.2-1,0.7-1.3L102,18.1
				V1.9c0-0.9,0.7-1.6,1.6-1.6h55.6c0.9,0,1.6,0.7,1.6,1.6v55.6C160.8,58.4,160.1,59.1,159.2,59.1z M105.2,55.9h52.3V3.5h-52.3v15.4
				c0,0.5-0.2,1-0.7,1.3l-12.7,9.5l12.7,9.5c0.4,0.3,0.7,0.8,0.7,1.3V55.9z"/>
		</g>
		<g>
			<path class="st3" d="M146.4,46.1h-10.2c-0.6,0-1.1-0.5-1.1-1.1V34.8c0-0.6,0.5-1.1,1.1-1.1h10.2c0.6,0,1.1,0.5,1.1,1.1V45
				C147.5,45.6,147,46.1,146.4,46.1z M137.3,43.9h8v-8h-8V43.9z"/>
		</g>
		<g>
			<g>
				<path class="st3" d="M120.9,52.6h-11c-0.3,0-0.7-0.1-0.9-0.4s-0.4-0.6-0.4-0.9l0.1-11.1c0-0.7,0.6-1.3,1.3-1.3c0,0,0,0,0,0
					c0.7,0,1.3,0.6,1.3,1.3l-0.1,9.8h9.7c0.7,0,1.3,0.6,1.3,1.3S121.6,52.6,120.9,52.6z"/>
			</g>
			<g>
				<path class="st3" d="M153.2,20.5c-0.7,0-1.3-0.6-1.3-1.3V9.3h-10c-0.7,0-1.3-0.6-1.3-1.3s0.6-1.3,1.3-1.3h11.3
					c0.7,0,1.3,0.6,1.3,1.3v11.2C154.5,19.9,153.9,20.5,153.2,20.5z"/>
			</g>
			<g>
				<path class="st3" d="M110,20.5c-0.7,0-1.3-0.6-1.3-1.3L108.6,8c0-0.3,0.1-0.7,0.4-0.9s0.6-0.4,0.9-0.4h11c0.7,0,1.3,0.6,1.3,1.3
					s-0.6,1.3-1.3,1.3h-9.7l0.1,9.9C111.3,19.9,110.7,20.5,110,20.5C110,20.5,110,20.5,110,20.5z"/>
			</g>
			<g>
				<path class="st3" d="M153.2,52.6h-11.3c-0.7,0-1.3-0.6-1.3-1.3s0.6-1.3,1.3-1.3h10v-9.8c0-0.7,0.6-1.3,1.3-1.3s1.3,0.6,1.3,1.3
					v11.1C154.5,52,153.9,52.6,153.2,52.6z"/>
			</g>
		</g>
		<g>
			<path class="st3" d="M126,46.1c-0.6,0-1.1-0.5-1.1-1.1v-9.1h-9.1c-0.6,0-1.1-0.5-1.1-1.1s0.5-1.1,1.1-1.1H126
				c0.6,0,1.1,0.5,1.1,1.1V45C127.1,45.6,126.6,46.1,126,46.1z"/>
		</g>
		<g>
			<g>
				<defs>
					<rect id="SVGID_1_" x="117.6" y="38.6" width="4.5" height="4.5"/>
				</defs>
				<clipPath id="SVGID_00000132781326961334780430000011495624659971146658_">
					<use xlink:href="#SVGID_1_"  style="overflow:visible;"/>
				</clipPath>
				
					<rect x="117.6" y="38.6" style="clip-path:url(#SVGID_00000132781326961334780430000011495624659971146658_);fill:#FFB71B;" width="0" height="4.5"/>
				
					<rect x="117.6" y="38.6" style="clip-path:url(#SVGID_00000132781326961334780430000011495624659971146658_);fill:#FFB71B;" width="0.5" height="4.5"/>
				
					<rect x="118.1" y="38.6" style="clip-path:url(#SVGID_00000132781326961334780430000011495624659971146658_);fill:#FFB61B;" width="0.5" height="4.5"/>
				
					<rect x="118.6" y="38.6" style="clip-path:url(#SVGID_00000132781326961334780430000011495624659971146658_);fill:#FEB51A;" width="0.5" height="4.5"/>
				
					<rect x="119.2" y="38.6" style="clip-path:url(#SVGID_00000132781326961334780430000011495624659971146658_);fill:#FEB41A;" width="0.5" height="4.5"/>
				
					<rect x="119.7" y="38.6" style="clip-path:url(#SVGID_00000132781326961334780430000011495624659971146658_);fill:#FDB319;" width="0.5" height="4.5"/>
				
					<rect x="120.2" y="38.6" style="clip-path:url(#SVGID_00000132781326961334780430000011495624659971146658_);fill:#FDB119;" width="0.5" height="4.5"/>
				
					<rect x="120.7" y="38.6" style="clip-path:url(#SVGID_00000132781326961334780430000011495624659971146658_);fill:#FCB018;" width="0.5" height="4.5"/>
				
					<rect x="121.2" y="38.6" style="clip-path:url(#SVGID_00000132781326961334780430000011495624659971146658_);fill:#FCAF18;" width="0.5" height="4.5"/>
				
					<rect x="121.7" y="38.6" style="clip-path:url(#SVGID_00000132781326961334780430000011495624659971146658_);fill:#FBAE17;" width="0.4" height="4.5"/>
			</g>
		</g>
		<g>
			<g>
				<defs>
					<rect id="SVGID_00000150096904243945651070000005536610454976607371_" x="139.1" y="17.2" width="4.5" height="4.5"/>
				</defs>
				<clipPath id="SVGID_00000166642322905004059280000000581145330072066699_">
					<use xlink:href="#SVGID_00000150096904243945651070000005536610454976607371_"  style="overflow:visible;"/>
				</clipPath>
				
					<rect x="139.1" y="17.2" style="clip-path:url(#SVGID_00000166642322905004059280000000581145330072066699_);fill:#FFB71B;" width="0" height="4.5"/>
				
					<rect x="139.1" y="17.2" style="clip-path:url(#SVGID_00000166642322905004059280000000581145330072066699_);fill:#FFB71B;" width="0.5" height="4.5"/>
				
					<rect x="139.6" y="17.2" style="clip-path:url(#SVGID_00000166642322905004059280000000581145330072066699_);fill:#FFB61B;" width="0.5" height="4.5"/>
				
					<rect x="140.1" y="17.2" style="clip-path:url(#SVGID_00000166642322905004059280000000581145330072066699_);fill:#FEB51A;" width="0.5" height="4.5"/>
				
					<rect x="140.6" y="17.2" style="clip-path:url(#SVGID_00000166642322905004059280000000581145330072066699_);fill:#FEB41A;" width="0.5" height="4.5"/>
				
					<rect x="141.1" y="17.2" style="clip-path:url(#SVGID_00000166642322905004059280000000581145330072066699_);fill:#FDB319;" width="0.5" height="4.5"/>
				
					<rect x="141.6" y="17.2" style="clip-path:url(#SVGID_00000166642322905004059280000000581145330072066699_);fill:#FDB119;" width="0.5" height="4.5"/>
				
					<rect x="142.1" y="17.2" style="clip-path:url(#SVGID_00000166642322905004059280000000581145330072066699_);fill:#FCB018;" width="0.5" height="4.5"/>
				
					<rect x="142.6" y="17.2" style="clip-path:url(#SVGID_00000166642322905004059280000000581145330072066699_);fill:#FCAF18;" width="0.5" height="4.5"/>
				
					<rect x="143.1" y="17.2" style="clip-path:url(#SVGID_00000166642322905004059280000000581145330072066699_);fill:#FBAE17;" width="0.5" height="4.5"/>
			</g>
		</g>
		<g>
			<path class="st3" d="M146.4,25.7h-10.2c-0.6,0-1.1-0.5-1.1-1.1V14.4c0-0.6,0.5-1.1,1.1-1.1h10.2c0.6,0,1.1,0.5,1.1,1.1v10.2
				C147.5,25.2,147,25.7,146.4,25.7z M137.3,23.5h8v-8h-8V23.5z"/>
		</g>
		<g>
			<path class="st3" d="M126,25.7h-10.2c-0.6,0-1.1-0.5-1.1-1.1V14.4c0-0.6,0.5-1.1,1.1-1.1H126c0.6,0,1.1,0.5,1.1,1.1v10.2
				C127.1,25.2,126.6,25.7,126,25.7z M116.9,23.5h8v-8h-8V23.5z"/>
		</g>
	</g>
</g>
</svg>
